 http://imageshack.us/m/850/3724/f25e85.jpg

Country.......: USA
Genre.........: Action
Date release..: 26.04.2011 [World]
Director......: Cole S. McKay
Writers.......: Thunder Levin
Duration......: 92 min.
More..........: http://www.imdb.com/title/tt1823051
Trailer.......:

Pilot :
The protagonist is Rick - amateur racing. When porachunkach mafia killed his brother, Rick, wanting to avenge his death, writes to the deadly illegal racing, hoping to find the perpetrators.

Cats :
Jaz Martin   	 ...  	Rick Merchant
AnnaMaria Demara 	... 	Claudia
Paul Logan 	... 	Officer Flynn
Darren Thomas 	... 	Kayce
Hennely Jimenez 	... 	Kelly Garcia
Zedrick Restauro 	... 	Phong
Jared Kahn 	... 	Albert
Sam Aaron 	... 	Lou
Cleo Berry 	... 	Jake
Sean Cory 	... 	Attendant (as Sean Cory Cooper)
Chris Trouble Delfosse 	... 	Trouble
Michael Gaglio 	... 	Dr. Steven
Janet Tracy Keijser 	... 	Debbie
Makelaie 	... 	Domingo Juarez
Tommy Nash 	... 	Tom Merchant

Data Technical :
!!! SAMPLE !!!
Audio.....: English
Subtitles.: Hard Spanish, English .srt, Indonesian .srt, Vietnamese .srt
Format                           : AVI
Format/Info                      : Audio Video Interleave
File size                        : 791 MiB
Duration                         : 1h 32mn
Overall bit rate                 : 1 199 Kbps
Movie name                       : avi.Title3
Writing application              : Lavf52.33.0
Writing library                  : VirtualDub build 32842/release
Video
ID                               : 0
Format                           : MPEG-4 Visual
Format profile                   : Simple@L5
Format settings, BVOP            : No
Format settings, QPel            : No
Format settings, GMC             : No warppoints
Format settings, Matrix          : Default (H.263)
Codec ID                         : XVID
Codec ID/Hint                    : XviD
Duration                         : 1h 32mn
Bit rate                         : 1 126 Kbps
Width                            : 720 pixels
Height                           : 404 pixels
Display aspect ratio             : 16:9
Frame rate                       : 23.976 fps
Color space                      : YUV
Chroma subsampling               : 4:2:0
Bit depth                        : 8 bits
Scan type                        : Progressive
Bits/(Pixel*Frame)               : 0.161
Stream size                      : 742 MiB (94%)
Writing library                  : XviD 62
Audio
ID                               : 1
Format                           : MPEG Audio
Format version                   : Version 1
Format profile                   : Layer 3
Mode                             : Joint stereo
Mode extension                   : MS Stereo
Codec ID                         : 55
Codec ID/Hint                    : MP3
Duration                         : 1h 32mn
Bit rate mode                    : Constant
Bit rate                         : 64.0 Kbps
Channel(s)                       : 2 channels
Sampling rate                    : 48.0 KHz
Stream size                      : 42.2 MiB (5%)
Alignment                        : Split accross interleaves
Interleave, duration             : 42 ms (1.00 video frame)
Interleave, preload duration     : 500 ms
Writing library                  : LAME3.98.2

Screen : 
http://imageshack.us/m/811/4032/200mph2011s1.jpg 
http://imageshack.us/m/3/9662/200mph2011s2.jpg 
http://imageshack.us/m/594/3385/200mph2011s3.jpg 
http://imageshack.us/m/691/9673/200mph2011s4.jpg 
http://imageshack.us/m/844/4999/200mph2011s5.jpg